<?xml version="1.0" encoding="utf-8"?>
<!-- Generator: Adobe Illustrator 19.2.1, SVG Export Plug-In . SVG Version: 6.00 Build 0)  -->
<svg version="1.1" id="Layer_1" xmlns="http://www.w3.org/2000/svg" xmlns:xlink="http://www.w3.org/1999/xlink" x="0px" y="0px"
	 viewBox="0 0 184 70" enable-background="new 0 0 184 70" xml:space="preserve">
<g>
	<path id="XMLID_3_" d="M141.15,12.02c-7.51,0-11.93,4.85-11.93,12.94v3.19c0,8.18,4.42,12.9,11.89,12.9
		c7.51,0,11.27-4.57,11.27-9.71v-0.53h-5.66c0,2.95-1.43,5.23-5.52,5.23c-4.04,0-6.04-2.52-6.04-7.9v-3.19c0-5.33,2-7.99,6.04-7.99
		c3.76,0,5.52,2.48,5.52,5.28h5.66v-0.29C152.37,16.44,148.14,12.02,141.15,12.02 M86.52,12.35l-9.13,28.35h5.9l2.05-7.14h8.99
		l2,7.14h6.28l-9.08-28.35H86.52z M24.47,11.83c-3.19-0.19-5.9,1.81-7.42,1.81s-3.85-1.71-6.37-1.67c-3.28,0.05-6.32,1.9-7.99,4.85
		c-3.42,5.9-0.9,14.65,2.43,19.46c1.62,2.38,3.57,5,6.13,4.9c2.43-0.1,3.38-1.57,6.32-1.57c2.95,0,3.8,1.57,6.37,1.52
		c2.66-0.05,4.33-2.38,5.94-4.76c1.85-2.71,2.61-5.33,2.66-5.47c-0.05-0.05-5.14-2-5.18-7.85c-0.05-4.9,3.99-7.23,4.18-7.37
		C29.27,12.3,25.7,11.92,24.47,11.83 M86.57,29.19l3.23-11.28h0.1l3.18,11.28H86.57z M102.83,17.16h8.46v23.55h5.85V17.16h8.46v-4.8
		h-22.78V17.16z M22.52,8.69c1.33-1.67,2.24-3.9,2-6.19c-1.95,0.1-4.33,1.29-5.7,2.95c-1.24,1.43-2.33,3.76-2.05,5.95
		C18.95,11.59,21.14,10.31,22.52,8.69 M176.06,12.35v11.37H164.5V12.35h-5.9v28.35h5.9V28.62h11.55v12.08H182V12.35H176.06z
		 M65.6,32.57H65.5l-5.04-20.22h-5.99l-5.04,20.22h-0.1l-4.66-20.22H38.4l7.89,28.35h5.9l5.23-19.41h0.1l5.23,19.41h5.94l7.89-28.35
		H70.3L65.6,32.57z"/>
	<g>
		<path fill="#DB1818" d="M55.88,62.82c0.14,1.27,1.38,2.1,3.06,2.1c1.62,0,2.78-0.83,2.78-1.98c0-0.99-0.7-1.59-2.36-2l-1.66-0.4
			c-2.35-0.57-3.44-1.67-3.44-3.45c0-2.21,1.93-3.73,4.66-3.73c2.71,0,4.56,1.52,4.62,3.73h-1.93c-0.12-1.28-1.17-2.05-2.72-2.05
			c-1.54,0-2.6,0.78-2.6,1.92c0,0.91,0.67,1.44,2.33,1.85l1.41,0.35c2.63,0.62,3.72,1.68,3.72,3.55c0,2.4-1.91,3.9-4.94,3.9
			c-2.84,0-4.76-1.46-4.88-3.78H55.88z"/>
		<path fill="#DB1818" d="M76.71,66.39h-8.13V53.58h8.13v1.71h-6.14v3.75h5.81v1.65h-5.81v3.98h6.14V66.39z"/>
		<path fill="#DB1818" d="M83.79,66.39H81.8V53.58h4.96c2.64,0,4.28,1.53,4.28,3.91c0,1.73-0.92,3.13-2.48,3.66l2.87,5.24h-2.29
			l-2.61-4.93h-2.73V66.39z M83.79,59.85h2.79c1.54,0,2.42-0.84,2.42-2.31c0-1.43-0.93-2.3-2.47-2.3h-2.73V59.85z"/>
		<path fill="#DB1818" d="M96.01,66.39V53.58H98v12.81H96.01z"/>
		<path fill="#DB1818" d="M111.54,66.39h-8.13V53.58h8.13v1.71h-6.14v3.75h5.81v1.65h-5.81v3.98h6.14V66.39z"/>
		<path fill="#DB1818" d="M118.03,62.82c0.14,1.27,1.38,2.1,3.06,2.1c1.62,0,2.78-0.83,2.78-1.98c0-0.99-0.7-1.59-2.36-2l-1.66-0.4
			c-2.35-0.57-3.44-1.67-3.44-3.45c0-2.21,1.93-3.73,4.66-3.73c2.71,0,4.56,1.52,4.62,3.73h-1.93c-0.12-1.28-1.17-2.05-2.72-2.05
			c-1.55,0-2.6,0.78-2.6,1.92c0,0.91,0.68,1.44,2.33,1.85l1.41,0.35c2.63,0.62,3.72,1.68,3.72,3.55c0,2.4-1.91,3.9-4.94,3.9
			c-2.84,0-4.76-1.46-4.88-3.78H118.03z"/>
		<path fill="#DB1818" d="M137.39,59.03h1.54c1.38,0,2.33-0.87,2.33-2.08c0-1.19-0.82-1.98-2.33-1.98c-1.38,0-2.31,0.8-2.42,2.06
			h-1.87c0.15-2.25,1.85-3.69,4.38-3.69c2.42,0,4.19,1.38,4.19,3.35c0,1.6-1.05,2.74-2.64,3.03v0.04c1.93,0.13,3.17,1.31,3.17,3.11
			c0,2.24-2.03,3.77-4.7,3.77c-2.76,0-4.54-1.52-4.66-3.73h1.91c0.12,1.22,1.14,2.07,2.75,2.07c1.56,0,2.68-0.89,2.68-2.14
			c0-1.38-1.05-2.24-2.73-2.24h-1.6V59.03z"/>
	</g>
</g>
</svg>
